<?xml version="1.0" encoding="UTF-8"?><svg id="Layer_2" xmlns="http://www.w3.org/2000/svg" xmlns:xlink="http://www.w3.org/1999/xlink" viewBox="0 0 133.65 99.29"><defs><style>.cls-1{fill:url(#linear-gradient-2);}.cls-2{fill:url(#linear-gradient-6);}.cls-3{fill:url(#linear-gradient-5);}.cls-4{fill:url(#linear-gradient-7);}.cls-5{fill:url(#linear-gradient-3);}.cls-6{fill:url(#linear-gradient);}.cls-7{fill:url(#linear-gradient-4);}</style><linearGradient id="linear-gradient" x1="258.87" y1="-61.48" x2="-82.13" y2="96.69" gradientTransform="matrix(1, 0, 0, 1, 0, 0)" gradientUnits="userSpaceOnUse"><stop offset="0" stop-color="#ecfbfc"/><stop offset=".2" stop-color="#d0f1fe"/><stop offset=".35" stop-color="#fd7547"/><stop offset=".59" stop-color="#b12005"/><stop offset=".72" stop-color="#153065"/><stop offset="1" stop-color="#274c7d"/></linearGradient><linearGradient id="linear-gradient-2" x1="276.33" y1="-23.86" x2="-64.68" y2="134.32" xlink:href="#linear-gradient"/><linearGradient id="linear-gradient-3" x1="280.47" y1="-10.61" x2="-60.54" y2="147.56" xlink:href="#linear-gradient"/><linearGradient id="linear-gradient-4" x1="287.92" y1="1.14" x2="-53.09" y2="159.31" xlink:href="#linear-gradient"/><linearGradient id="linear-gradient-5" x1="274.2" y1="-28.44" x2="-66.81" y2="129.73" xlink:href="#linear-gradient"/><linearGradient id="linear-gradient-6" x1="261.14" y1="-56.59" x2="-79.86" y2="101.58" xlink:href="#linear-gradient"/><linearGradient id="linear-gradient-7" x1="267.67" y1="-42.52" x2="-73.34" y2="115.66" xlink:href="#linear-gradient"/></defs><g id="Layer_1-2"><path class="cls-6" d="M13.07,76.68l-5.04,5.25v16.49H0V.75H8.03V72.07l4.3-5.17,14.63-15.45h9.77l-18.27,19.62,20.4,27.35h-9.42l-16.36-21.75Z"/><path class="cls-1" d="M74.01,93.78c-3.13,3.68-7.71,5.51-13.76,5.51-5.01,0-8.82-1.45-11.44-4.36-2.62-2.91-3.94-7.21-3.97-12.91v-30.56h8.03v30.34c0,7.12,2.89,10.68,8.68,10.68,6.13,0,10.21-2.29,12.24-6.86V51.46h8.03v46.97h-7.64l-.17-4.64Z"/><path class="cls-5" d="M114.72,58.66c-1.22-.2-2.53-.3-3.95-.3-5.27,0-8.84,2.24-10.72,6.73v33.34h-8.03V51.46h7.81l.13,5.43c2.63-4.2,6.37-6.29,11.2-6.29,1.56,0,2.75,.2,3.56,.61v7.47Z"/><rect class="cls-7" x="124.79" y="51.46" width="8.03" height="46.97"/><circle class="cls-3" cx="128.89" cy="38.96" r="4.75"/><circle class="cls-2" cx="128.89" cy="4.75" r="4.75"/><circle class="cls-4" cx="128.89" cy="21.85" r="4.75"/></g></svg>