<?xml version="1.0" encoding="UTF-8"?><svg id="Layer_2" xmlns="http://www.w3.org/2000/svg" viewBox="0 0 133.65 99.29"><defs><style>.cls-1{fill:#153065;}</style></defs><g id="Layer_1-2"><g><path class="cls-1" d="M13.07,76.68l-5.04,5.25v16.49H0V.75H8.03V72.07l4.3-5.17,14.63-15.45h9.77l-18.27,19.62,20.4,27.35h-9.42l-16.36-21.75Z"/><path class="cls-1" d="M74.01,93.78c-3.13,3.68-7.71,5.51-13.76,5.51-5.01,0-8.82-1.45-11.44-4.36-2.62-2.91-3.94-7.21-3.97-12.91v-30.56h8.03v30.34c0,7.12,2.89,10.68,8.68,10.68,6.13,0,10.21-2.29,12.24-6.86V51.46h8.03v46.97h-7.64l-.17-4.64Z"/><path class="cls-1" d="M114.72,58.66c-1.22-.2-2.53-.3-3.95-.3-5.27,0-8.84,2.24-10.72,6.73v33.34h-8.03V51.46h7.81l.13,5.43c2.63-4.2,6.37-6.29,11.2-6.29,1.56,0,2.75,.2,3.56,.61v7.47Z"/><rect class="cls-1" x="124.79" y="51.46" width="8.03" height="46.97"/><circle class="cls-1" cx="128.89" cy="38.96" r="4.75"/><circle class="cls-1" cx="128.89" cy="4.75" r="4.75"/><circle class="cls-1" cx="128.89" cy="21.85" r="4.75"/></g></g></svg>